# xmcd
#
# Track frame offsets:
# 150
# 26895
# 39347
# 57538
# 79994
# 99376
# 122100
# 139318
# 155762
# 172097
# 191841
# 209580
# 231029
# 257488
# 274912
# 309169
# 332353
#
# Disc length: 4666 seconds
#
#
# Revision: 1
# Processed by: cddbd v1.5.2PL0 Copyright (c) Steve Scherf et al.
# Submitted via: FreeRIP 2.951 
#
DISCID=f9123811
DTITLE=Ivete Sangalo - Ao Vivo no Maracanã
DYEAR=2007
DGENRE=UnClassifiable
TTITLE0=Never Gonna Give You Up
TTITLE1=Não Quero Dinheiro Só Quero Amar
TTITLE2=Berimbau Metalizado
TTITLE3=Corazón Partio - Feat. Alejandro Sanz
TTITLE4=Ilumina
TTITLE5=Não Me Conte Seus Problemas
TTITLE6=Não Precisa Mudar - Feat. Saulo Fernandes
TTITLE7=A Galera
TTITLE8=Dengo de Amor
TTITLE9=É Difícil - Chorando se Foi
TTITLE10=Bota pra Fever - Feat. Durval Lelys
TTITLE11=Quando a Chuva Passar
TTITLE12=Deixo
TTITLE13=Não Vou Ficar - Feat. Samuel Rosa
TTITLE14=Nosso Sonho - Conquista - Poder - Feat. Mc Buchech
TTITLE15=País Tropical - Arerê - Taj Mahal
TTITLE16=Completo
EXTD=
EXTT0=
EXTT1=
EXTT2=
EXTT3=
EXTT4=
EXTT5=
EXTT6=
EXTT7=
EXTT8=
EXTT9=
EXTT10=
EXTT11=
EXTT12=
EXTT13=
EXTT14=
EXTT15=
EXTT16=
PLAYORDER=
